<?xml version="1.0" encoding="utf-8"?>
<!-- Generator: Adobe Illustrator 24.0.2, SVG Export Plug-In . SVG Version: 6.00 Build 0)  -->
<svg version="1.1" id="Layer_1" xmlns="http://www.w3.org/2000/svg" xmlns:xlink="http://www.w3.org/1999/xlink" x="0px" y="0px"
	 viewBox="0 0 512 512" style="enable-background:new 0 0 512 512;" xml:space="preserve">
<style type="text/css">
	.st0{fill:#FFFFFF;}
</style>
<g>
	<g>
		<path class="st0" d="M365.3,109.3c-42.3,0-80.4,17.9-107.1,46.5c-14.3-16.5-35.5-27-59.1-27c-43.2,0-78.2,35-78.2,78.2
			c0,0.6,0,1.3,0,2c-26.8,5.4-49.6,21.8-63.6,44.3H10.7C4.8,253.3,0,258.1,0,264c0,5.9,4.8,10.7,10.7,10.7H160
			c5.9,0,10.7-4.8,10.7-10.7s-4.8-10.7-10.7-10.7H84c10.9-11.9,25.4-20.2,41.1-23.4l17.5-3.6l-0.4-17.9c0-0.5,0-1,0-1.4
			c0-31.4,25.5-56.9,56.9-56.9c16.5,0,32.2,7.1,43,19.6l15.5,17.9l16.2-17.3c11.6-12.4,25.3-22.2,40.8-29.1
			c16-7.1,33.1-10.7,50.7-10.7c33.5,0,65,13,88.6,36.7c23.7,23.7,36.7,55.1,36.7,88.6c0,33.5-13,64.9-36.7,88.6
			c-23.7,23.7-55.1,36.7-88.6,36.7H79.5H10.7C4.8,381.3,0,386.1,0,392c0,5.9,4.8,10.7,10.7,10.7H192h173.3
			c81,0,146.7-65.7,146.7-146.7C512,175,446.3,109.3,365.3,109.3z"/>
	</g>
</g>
<g>
	<g>
		<path class="st0" d="M202.7,317.3H53.3c-5.9,0-10.7,4.8-10.7,10.7c0,5.9,4.8,10.7,10.7,10.7h149.3c5.9,0,10.7-4.8,10.7-10.7
			C213.3,322.1,208.6,317.3,202.7,317.3z"/>
	</g>
</g>
</svg>
