<?xml version="1.0" encoding="utf-8"?>
<!-- Generator: Adobe Illustrator 24.0.2, SVG Export Plug-In . SVG Version: 6.00 Build 0)  -->
<svg version="1.1" id="Layer_1" xmlns="http://www.w3.org/2000/svg" xmlns:xlink="http://www.w3.org/1999/xlink" x="0px" y="0px"
	 viewBox="0 0 512 512" style="enable-background:new 0 0 512 512;" xml:space="preserve">
<style type="text/css">
	.st0{fill:#FFFFFF;}
</style>
<g>
	<g>
		<g>
			<path class="st0" d="M327.2,2.8c-4.1-3.7-10.2-3.7-14.3,0C308.2,7,202,104.1,152.6,216.6c-5.3-1.9-11.4-3.3-19.4-3.3
				c-18.7,0-28.7,7-36.8,12.6c-7,4.9-12.6,8.8-24.6,8.8c-12,0-17.5-3.9-24.5-8.8c-8-5.6-18.1-12.6-36.7-12.6
				C4.8,213.3,0,218.1,0,224s4.8,10.7,10.7,10.7c12,0,17.5,3.9,24.5,8.8c8,5.6,18.1,12.6,36.7,12.6c18.7,0,28.7-7,36.8-12.6
				c7-4.9,12.6-8.8,24.6-8.8c12,0,17.6,3.9,24.6,8.8c8.1,5.6,18.1,12.6,36.8,12.6c18.7,0,28.7-7,36.8-12.6c7-4.9,12.6-8.8,24.6-8.8
				c5.9,0,10.7-4.8,10.7-10.7c0-5.9-4.8-10.7-10.7-10.7c-18.7,0-28.7,7-36.8,12.6c-7,4.9-12.6,8.8-24.6,8.8
				c-11.2,0-16.8-3.4-23.2-7.9C211.5,134.2,295.1,49.4,320,25.3c33.2,32,170.7,171.9,170.7,294.7c0,94.1-76.6,170.7-170.7,170.7
				c-42.5,0-82.7-15.8-113.8-43.8c11.5-2.1,19-7.2,25.2-11.5c7-4.9,12.6-8.8,24.6-8.8c5.9,0,10.7-4.8,10.7-10.7s-4.8-10.7-10.7-10.7
				c-18.7,0-28.7,7-36.8,12.6c-7,4.9-12.6,8.8-24.6,8.8c-12,0-17.6-3.9-24.6-8.8c-8.1-5.6-18.1-12.6-36.8-12.6
				c-18.7,0-28.7,7-36.8,12.6c-7,4.9-12.6,8.8-24.6,8.8c-12,0-17.5-3.9-24.5-8.8c-8-5.6-18.1-12.6-36.7-12.6
				C4.8,405.3,0,410.1,0,416s4.8,10.7,10.7,10.7c12,0,17.5,3.9,24.5,8.8c8,5.6,18.1,12.6,36.7,12.6c18.7,0,28.7-7,36.8-12.6
				c7-4.9,12.6-8.8,24.6-8.8c12,0,17.6,3.9,24.6,8.8c4.3,3,9.4,6.4,16,8.9c36.6,43,89.7,67.7,146.2,67.7c105.9,0,192-86.1,192-192
				C512,171.6,334.7,9.6,327.2,2.8z"/>
			<path class="st0" d="M10.7,362.7c12,0,17.5,3.9,24.5,8.8c8,5.6,18.1,12.6,36.7,12.6c5.9,0,10.7-4.8,10.7-10.7
				s-4.8-10.7-10.7-10.7c-12,0-17.5-3.9-24.5-8.8c-8-5.6-18.1-12.6-36.7-12.6C4.8,341.3,0,346.1,0,352S4.8,362.7,10.7,362.7z"/>
			<path class="st0" d="M133.3,341.3c-5.9,0-10.7,4.8-10.7,10.7s4.8,10.7,10.7,10.7c12,0,17.6,3.9,24.6,8.8
				c8.1,5.6,18.1,12.6,36.8,12.6c18.7,0,28.7-7,36.8-12.6c7-4.9,12.6-8.8,24.6-8.8c12.2,0,18.4,4,26.2,9
				c9.1,5.8,19.3,12.3,37.8,12.3c5.9,0,10.7-4.8,10.7-10.7s-4.8-10.7-10.7-10.7c-12.2,0-18.4-4-26.2-9c-9.1-5.8-19.3-12.3-37.8-12.3
				c-18.7,0-28.7,7-36.8,12.6c-7,4.9-12.6,8.8-24.6,8.8c-12,0-17.6-3.9-24.6-8.8C162,348.3,152,341.3,133.3,341.3z"/>
			<path class="st0" d="M133.3,277.3c-18.7,0-28.7,7-36.8,12.6c-7,4.9-12.6,8.8-24.6,8.8c-12,0-17.5-3.9-24.5-8.8
				c-8-5.6-18.1-12.6-36.7-12.6C4.8,277.3,0,282.1,0,288s4.8,10.7,10.7,10.7c12,0,17.5,3.9,24.5,8.8c8,5.6,18.1,12.6,36.7,12.6
				c18.7,0,28.7-7,36.8-12.6c7-4.9,12.6-8.8,24.6-8.8c5.9,0,10.7-4.8,10.7-10.7C143.9,282.1,139.2,277.3,133.3,277.3z"/>
			<path class="st0" d="M231.4,307.4c7-4.9,12.6-8.8,24.6-8.8c12,0,17.5,3.9,24.5,8.8c8,5.6,18.1,12.6,36.7,12.6
				c18.7,0,28.7-7,36.8-12.6c7-4.9,12.6-8.8,24.6-8.8c5.9,0,10.7-4.8,10.7-10.7s-4.8-10.7-10.7-10.7c-18.7,0-28.7,7-36.8,12.6
				c-7,4.9-12.6,8.8-24.6,8.8c-12,0-17.5-3.9-24.5-8.8c-8-5.6-18.1-12.6-36.7-12.6c-18.7,0-28.7,7-36.8,12.6
				c-7,4.9-12.6,8.8-24.6,8.8c-5.9,0-10.7,4.8-10.7,10.7s4.8,10.7,10.7,10.7C213.3,320,223.3,313,231.4,307.4z"/>
		</g>
	</g>
</g>
</svg>
