<?xml version="1.0" encoding="utf-8"?>
<!-- Generator: Adobe Illustrator 24.0.2, SVG Export Plug-In . SVG Version: 6.00 Build 0)  -->
<svg version="1.1" id="Capa_1" xmlns="http://www.w3.org/2000/svg" xmlns:xlink="http://www.w3.org/1999/xlink" x="0px" y="0px"
	 viewBox="0 0 493.5 493.5" style="enable-background:new 0 0 493.5 493.5;" xml:space="preserve">
<style type="text/css">
	.st0{fill:#FFFFFF;}
</style>
<g>
	<path class="st0" d="M246.8,0C153,0,77,76,77,169.8c0,71.5,98.7,236.2,145.6,310.4c5.3,8.3,14.4,13.3,24.2,13.3
		c9.8,0,18.9-5,24.2-13.3c46.9-74.2,145.6-238.9,145.6-310.4C416.5,76,340.5,0,246.8,0z M246.8,273.4c-53,0-96-43-96-96
		c0-53,43-96,96-96s96,43,96,96C342.8,230.4,299.8,273.4,246.8,273.4z"/>
</g>
</svg>
