<?xml version="1.0" encoding="utf-8"?>
<!-- Generator: Adobe Illustrator 24.0.2, SVG Export Plug-In . SVG Version: 6.00 Build 0)  -->
<svg version="1.1" id="Layer_1" xmlns="http://www.w3.org/2000/svg" xmlns:xlink="http://www.w3.org/1999/xlink" x="0px" y="0px"
	 viewBox="0 0 196.1 196.1" style="enable-background:new 0 0 196.1 196.1;" xml:space="preserve">
<style type="text/css">
	.st0{fill:#FFFFFF;}
</style>
<g>
	<g>
		<g>
			<path class="st0" d="M94.9,137.8c-1.8-16.3-16.3-29.1-33.8-29.1c-13.9,0-26.2,8-31.4,20.1c-0.1,0-0.1,0-0.2,0
				C13.2,128.8,0,141.9,0,158c0,16.1,13.2,29.2,29.5,29.2c0.3,0,0.6,0,0.8,0c0.1,0,0.2,0,0.3,0h63.2c0.2,0,0.4,0,0.6-0.1
				c13.1-0.9,23.2-11.7,23.2-24.7C117.7,149.6,107.7,139,94.9,137.8z M93.6,180.1c-0.1,0-0.2,0-0.3,0H31.1c-0.2,0-0.4,0-0.6,0
				c-12.7,0.5-23.3-9.6-23.3-22c0-12.2,10-22.1,22.4-22.1c0.7,0,1.5,0,2.2,0.1c1.6,0.2,3.2-0.8,3.7-2.4
				c3.6-10.6,13.9-17.7,25.6-17.7c14.8,0,26.9,11.4,26.9,25.4c0,1,0.4,1.9,1.1,2.6s1.6,1,2.6,1c0.3,0,0.6,0,1,0
				c9.9,0,17.9,7.9,17.9,17.6C110.5,171.8,103.1,179.6,93.6,180.1z"/>
			<path class="st0" d="M101.7,87.3c0.2,0,0.4,0.1,0.7,0.1h63.2c0.1,0,0.2,0,0.3,0c0.3,0,0.6,0,0.8,0c16.3,0,29.5-13.1,29.5-29.2
				c0-16.1-13.2-29.2-29.5-29.2c-0.1,0-0.1,0-0.2,0C161.2,16.9,148.9,8.9,135,8.9c-17.5,0-32,12.7-33.8,29.1
				c-12.7,1.1-22.8,11.7-22.8,24.6C78.4,75.6,88.6,86.4,101.7,87.3z M103.4,45c0.3,0,0.6,0,1,0c1,0,1.9-0.3,2.6-1
				c0.7-0.7,1.1-1.6,1.1-2.6c0-14,12.1-25.4,26.9-25.4c11.8,0,22.1,7.1,25.6,17.7c0.5,1.6,2.1,2.6,3.7,2.4c0.7-0.1,1.5-0.1,2.2-0.1
				c12.3,0,22.4,9.9,22.4,22.1c0,12.5-10.7,22.6-23.3,22c-0.1,0-0.1,0-0.2,0c-0.1,0-0.3,0-0.4,0h-62.3c-0.1,0-0.2,0-0.3,0
				C93,79.7,85.6,72,85.6,62.6C85.6,52.9,93.6,45,103.4,45z"/>
			<path class="st0" d="M63.2,86.5l-35,4.6c-2,0.3-3.3,2.1-3.1,4c0.2,1.8,1.8,3.1,3.5,3.1c0.2,0,0.3,0,0.5,0l39-5.2
				c1-0.1,1.9-0.7,2.5-1.6c0.6-0.8,0.7-1.9,0.5-2.9L61,50.7c-0.5-1.9-2.5-3-4.4-2.5c-1.9,0.5-3,2.5-2.5,4.4L63.2,86.5z"/>
			<path class="st0" d="M3.6,84c0.2,0,0.3,0,0.5,0l39-5.2c1-0.1,1.9-0.7,2.5-1.6c0.6-0.8,0.7-1.9,0.5-2.9L36,36.5
				c-0.5-1.9-2.5-3-4.4-2.5c-1.9,0.5-3,2.5-2.5,4.4l9,33.9l-35,4.6c-2,0.3-3.3,2.1-3.1,4C0.3,82.6,1.8,84,3.6,84z"/>
			<path class="st0" d="M125.9,116.9l35-4.6c1.9-0.3,3.3-2.1,3.1-4c-0.3-2-2.1-3.3-4-3.1l-39,5.2c-1,0.1-1.9,0.7-2.5,1.6
				c-0.6,0.8-0.7,1.9-0.5,2.9l10,37.8c0.4,1.6,1.9,2.6,3.4,2.6c0.3,0,0.6,0,0.9-0.1c1.9-0.5,3-2.5,2.5-4.4L125.9,116.9z"/>
			<path class="st0" d="M185,126.6l-39,5.2c-1,0.1-1.9,0.7-2.5,1.6c-0.6,0.9-0.7,1.9-0.5,2.9L153,174c0.4,1.6,1.9,2.6,3.4,2.6
				c0.3,0,0.6,0,0.9-0.1c1.9-0.5,3-2.5,2.5-4.4l-9-33.9l35-4.6c1.9-0.3,3.3-2.1,3.1-4C188.7,127.7,186.9,126.4,185,126.6z"/>
		</g>
	</g>
</g>
</svg>
